<?xml version="1.0" standalone="no"?>
<!DOCTYPE svg PUBLIC "-//W3C//DTD SVG 20010904//EN"
 "http://www.w3.org/TR/2001/REC-SVG-20010904/DTD/svg10.dtd">
<svg version="1.0" xmlns="http://www.w3.org/2000/svg"
 width="520.000000pt" height="520.000000pt" viewBox="0 0 520.000000 520.000000"
 preserveAspectRatio="xMidYMid meet">
<metadata>
Created by potrace 1.11, written by Peter Selinger 2001-2013
</metadata>
<g transform="translate(0.000000,520.000000) scale(0.100000,-0.100000)"
fill="#000000" stroke="none">
<path d="M2405 5189 c-312 -24 -622 -108 -920 -248 l-119 -56 134 -6 c219 -11
381 -58 523 -153 180 -119 257 -267 257 -493 0 -236 -115 -419 -333 -526 -183
-90 -295 -107 -714 -107 l-323 0 -2 -297 -3 -298 -307 -3 -308 -2 -1 387 -1
388 -43 -90 c-133 -279 -211 -590 -236 -933 -29 -406 58 -871 231 -1237 l38
-80 1 458 1 458 678 -4 c642 -3 682 -4 767 -24 316 -73 487 -209 515 -410 22
-164 -47 -310 -194 -405 l-59 -38 59 -26 c186 -82 291 -218 302 -391 12 -202
-88 -359 -298 -468 -172 -89 -328 -114 -695 -115 l-250 0 100 -66 c119 -77
361 -198 499 -249 135 -50 319 -99 473 -127 115 -21 158 -23 428 -23 270 0
313 2 428 23 266 48 482 119 722 237 140 69 364 204 339 205 -6 0 -40 70 -75
155 l-64 155 -420 0 -420 0 -62 -153 -61 -152 -326 -3 -325 -2 38 82 c32 69
343 731 754 1606 l90 192 311 -2 310 -3 186 -396 c102 -217 205 -438 229 -490
110 -234 216 -460 248 -529 34 -73 35 -74 51 -54 9 12 42 52 74 90 31 38 84
109 117 158 l61 90 0 568 0 568 193 2 192 3 3 210 c2 116 -2 261 -9 322 l-11
113 -317 2 -316 3 -3 666 -2 666 -123 119 -122 119 -3 -57 -3 -58 -612 -2
-612 -3 -3 -157 -3 -158 518 -2 518 -3 0 -195 0 -195 -518 -3 -518 -2 3 -155
3 -155 620 -3 620 -2 3 -211 2 -211 -77 -28 c-112 -39 -247 -109 -295 -153
-90 -81 -96 -176 -15 -213 67 -30 209 -25 335 12 10 3 13 -13 13 -68 0 -40 0
-77 0 -82 -1 -13 -68 -38 -152 -55 -236 -49 -497 -20 -595 67 -47 41 -64 77
-64 137 0 60 32 130 82 176 65 62 202 138 333 185 49 17 34 18 -692 18 l-743
1 0 940 0 940 703 1 702 1 -120 58 c-296 143 -603 224 -945 250 -151 11 -216
11 -375 -1z"/>
<path d="M910 4219 l0 -231 263 4 c237 4 268 7 332 27 111 37 156 98 154 211
-1 79 -31 134 -91 170 -74 43 -127 50 -400 50 l-258 0 0 -231z"/>
<path d="M900 1768 l0 -183 282 2 c157 1 306 7 335 13 91 19 143 80 143 167 0
100 -61 154 -195 173 -38 5 -181 10 -317 10 l-248 0 0 -182z"/>
<path d="M3403 1468 l-130 -313 134 -3 c74 -1 192 -1 262 0 l127 3 -128 309
c-70 170 -129 311 -132 313 -2 2 -62 -137 -133 -309z"/>
<path d="M900 1066 l0 -196 263 0 c300 1 390 9 464 46 67 32 96 77 96 148 0
84 -31 128 -118 168 -48 22 -61 23 -377 26 l-328 3 0 -195z"/>
</g>
</svg>
